<?xml version="1.0" encoding="UTF-8" standalone="no"?>
<svg width="200" height="300" viewBox="0 0 200 300" xmlns="http://www.w3.org/2000/svg">
  <!-- Nền sách -->
  <rect x="10" y="10" width="180" height="280" rx="3" fill="#f8fafc" stroke="#e2e8f0" stroke-width="2"/>
  
  <!-- Bìa sách -->
  <rect x="20" y="20" width="160" height="260" rx="2" fill="#e2e8f0"/>
  
  <!-- Biểu tượng sách -->
  <path d="M100 80 C100 80, 140 80, 140 110 L140 190 C140 220, 100 220, 100 220 L100 80 Z" fill="#1e3a8a"/>
  <path d="M100 80 C100 80, 60 80, 60 110 L60 190 C60 220, 100 220, 100 220 L100 80 Z" fill="#3b82f6"/>
  <path d="M100 90 L100 210" stroke="#f8fafc" stroke-width="2"/>
  
  <!-- Viền trang sách -->
  <path d="M100 90 C100 90, 130 90, 130 110 L130 190 C130 210, 100 210, 100 210" stroke="#f8fafc" stroke-width="1" fill="none"/>
  <path d="M100 90 C100 90, 70 90, 70 110 L70 190 C70 210, 100 210, 100 210" stroke="#f8fafc" stroke-width="1" fill="none"/>
  
  <!-- Chữ "NO COVER" -->
  <text x="100" y="245" font-family="Arial, sans-serif" font-size="16" font-weight="bold" fill="#475569" text-anchor="middle">CHƯA CÓ BÌA</text>
</svg> 
 